# xmcd
#
# Track frame offsets:
#	150
#	16163
#	36079
#	57153
#	73248
#	86760
#	107704
#	132024
#	155381
#	168321
#	185622
#
# Disc length: 2761 seconds
#
# Revision: 0
# Processed by: cddbd v1.5.2PL0 Copyright (c) Steve Scherf et al.
# Submitted via: MusicWizard 7.2.0
#
DISCID=8c0ac70b
DTITLE=Harry Belafonte - Belafonte Sings The Blues
DYEAR=1900
DGENRE=Blues
TTITLE0=A Fool For You (Ray Charles)
TTITLE1=Loosing Hand (Charles Calhoun)
TTITLE2=One For My Baby (Johnny Mercer - Harold Arlen)
TTITLE3=In The Evenin Mama (C. C. Carter)
TTITLE4=Hallelujah I Love Her So (Ray Charles)
TTITLE5=The Way That I Feel (Fred Brooks)
TTITLE6=Cotton Fields (C. C. Carter)
TTITLE7=God Bless The Child (Bessie Smith)
TTITLE8=Mary Ann (Ray Charles)
TTITLE9=Sinners Prayer (Lowell Fulson)
TTITLE10=Fare Thee Well (Fred Brooks)
EXTD=
EXTT0=
EXTT1=
EXTT2=
EXTT3=
EXTT4=
EXTT5=
EXTT6=
EXTT7=
EXTT8=
EXTT9=
EXTT10=
PLAYORDER=
